# xmcd
# Track frame offsets:
# 150
# 11633
# 23023
# 33264
# 45274
# 56616
# 71735
# 82665
# 95340
# 107984
# 119138
# 131686
# 143302
# 155805
# 167477
# 180883
# 193558
# 204894
# 214497
# 224539
# 236464
# 246294
# 256837
# 267165
# 278914
# 292791
# 306665
# 317472
# 328928
# 338490
#
# Disc length: 4705 seconds
# Revision: 0
# Processed by: cddbd v1.5.2PL0 Copyright (c) Steve Scherf et al.
# Submitted via: VisiTrax 2.11.3.279 - For more info visit www.synapsa.com
#
DISCID=a9125f1e
DTITLE=Various (1920's-1960's) Gospel and Jazz and Blues and Soul and R&B  Artist
DTITLE=s - From Sacred To Secular - A Soul Awakening:- Soul Chronology 8- "So
DTITLE=mebody Have Mercy": CD8 of 8: *ReMastered Tracks
DYEAR=1961
DGENRE=Soul
TTITLE0=5 Royales The - Catch That Teardrop*
TTITLE1=Impressions The - I'm The One Who Loves You*
TTITLE2=Della Reese - Ninety Nine And A Half Wont Do*
TTITLE3=Marvelettes The - Strange I Know*
TTITLE4=Womack Brothers The as The Valentinos - Lookin' For A Love*
TTITLE5=Esther Phillips - No Headstone On My Grave*
TTITLE6=Yvonne Fair - Say Yeah Yeah*
TTITLE7=Joe Tex - I Let Her Get Away*
TTITLE8=Four Rivers The - Sooner Or Later*
TTITLE9=Tams The - Untie Me*
TTITLE10=King Curtis and His Noble Knights - Soul Twist*
TTITLE11=Martha and The Vandellas - I'll Have To Let Him Go*
TTITLE12=Etta James - Something's Got A Hold On Me*
TTITLE13=Little Milton - Losing Hand*
TTITLE14=Falcons The - I Found A Love*
TTITLE15=Chris Kenner - Land Of 1,000 Dances*
TTITLE16=Contours The - It Must Be Love*
TTITLE17=Lee Dorsey - Behind The 8 Ball*
TTITLE18=Tami Lynn - Mojo Hanna*
TTITLE19=Irma Thomas - Ruler Of My Heart*
TTITLE20=O'Jays The - Can't Take It*
TTITLE21=Sam and Dave - My Love Belongs To You*
TTITLE22=Ike and Tina Turner - Worried And Hurtin' Inside*
TTITLE23=Supremes The - Your Heart Belongs To Me*
TTITLE24=Sam Cooke - Somebody Have Mercy*
TTITLE25=Timi Yuro - Fever*
TTITLE26=Bettye LaVette - Witchcraft In The Air*
TTITLE27=Otis Redding - These Arms Of Mine*
TTITLE28=James Brown - I'll Go Crazy*
TTITLE29=Stevie Wonder - Fingertips (Part 2)*
EXTD=Eight CD's in a book style holder. Discs and Tracks in chronological o
EXTD=rder with a 35 page central section with alternate pages of Track Info
EXTD=rmation and Performer Photo'sCompiled, ReMastered and Presented: History O
EXTD=f Soul Records: 2015
EXTT0=
EXTT1=
EXTT2=
EXTT3=
EXTT4=
EXTT5=
EXTT6=
EXTT7=
EXTT8=
EXTT9=
EXTT10=
EXTT11=
EXTT12=
EXTT13=
EXTT14=
EXTT15=
EXTT16=
EXTT17=
EXTT18=
EXTT19=
EXTT20=
EXTT21=
EXTT22=
EXTT23=
EXTT24=
EXTT25=
EXTT26=
EXTT27=
EXTT28=
EXTT29=
PLAYORDER=
